<?xml version="1.0" encoding="utf-8"?>
<!-- Generator: Adobe Illustrator 19.1.0, SVG Export Plug-In . SVG Version: 6.00 Build 0)  -->
<svg version="1.1" id="Layer_1" xmlns="http://www.w3.org/2000/svg" xmlns:xlink="http://www.w3.org/1999/xlink" x="0px" y="0px"
	 viewBox="0 0 385.5 121.5" style="enable-background:new 0 0 385.5 121.5;" xml:space="preserve">
<style type="text/css">
	.st0{fill:#FFFFFF;}
</style>
<g>
	<g>
		<path class="st0" d="M141.5,87.6c0,8.9,5.1,12.7,10.9,12.7c3.6,0,7.9-1.5,7.9-1.5l0.6,1.2c-1.5,1.5-5.8,4.8-11.2,4.8
			c-7.3,0-13.9-5.5-13.9-15.5c0-9.1,6.3-15.7,14.1-15.7c6.1,0,10.9,3.7,10.9,10.6c0,1.8-0.3,3.4-0.3,3.4H141.5z M150.9,85.2
			c3.1-0.1,4.2-0.7,4.2-3.9c0-2.7-1.9-4.7-6-4.7c-4.3,0-7.6,3.8-7.6,8.9L150.9,85.2z"/>
		<path class="st0" d="M96,99.5l1.2,1.5l4.2,1.4l-0.1,1.6H86.6v-1.7l4.2-1.6l0-14.6c0-5.9-1.2-7.9-4.6-7.9v-1.5l9.4-3.4h0.5
			c0,0-0.2,4.4-0.2,9.1L96,99.5z"/>
		<path class="st0" d="M116.8,74.4V76l-4.3,1.4l7.1,19.5l7.4-19.3l-4.5-1.5v-1.7H134v1.8c-1.7,0-3.7,0.8-6,6.3l-8.1,22h-3.1
			l-8.9-23.6c-1.4-3.4-3-4.7-5.1-4.7v-1.8H116.8z"/>
		<path class="st0" d="M194.8,103.7c-0.4-0.2-1.6-0.8-1.7-2.2l-0.4-6.1h2.8c0.8,4.2,3.6,6.9,7.3,6.9c3.7,0,5.2-1.9,5.2-4.5
			c0-2.4-2-3.7-4.4-5l-3.3-1.7c-4.7-2.4-7-4.3-7-8.9c0-5.8,4.2-8.6,10.7-8.6c4.6,0,8.1,1.7,8.1,1.7l-0.8,7.5h-2.6
			c0-4.7-1.9-6.4-5.8-6.4c-2.6,0-5.1,1-5.1,3.6c0,2.1,0.8,3,5.9,5.6l2.9,1.5c5.3,2.7,6.7,5,6.7,9.3c0,5.3-5.3,8.4-10.4,8.4
			C199.5,104.8,196.6,104.4,194.8,103.7z"/>
		<path class="st0" d="M78.4,101l-1.2-1.5l0.1-16.3c0-7.5-4.9-9.6-9.9-9.6c-4.2,0-10.2,4.9-10.2,4.9c0-2.7,0.1-5.1,0.1-5.1h-0.5
			l-9.4,3.4v1.5c3.6,0,4.6,3.2,4.6,9v13.5l-4.2,1.6v1.7h14.8l0.1-1.6l-4.2-1.4l-1.2-1.5l0-18.4c0,0,2.2-3,6.3-3
			c4.2,0,8.5,1.5,8.5,8.6l-0.2,14.3l-4.1,1.5v1.7h14.8l0.1-1.6L78.4,101z"/>
		<path class="st0" d="M187.9,74L187.9,74L187.9,74c0,0-1.1-0.4-3.2-0.4c-4.5,0-9.2,7.1-9.2,7.1c0-3.9,0.1-7.3,0.1-7.3h-0.5
			l-9.2,3.4v1.5c3.5,0,4.6,3.2,4.6,8.5v14l-4.2,1.6v1.7h14.8l0-1.6l-4.2-1.4l-1.2-1.5V85.8c0-4.2,3.3-6.6,6.9-6.6
			c0.7,0,1.5,0.2,2.1,0.4l1,1.5l1.2,0.1L187.9,74L187.9,74L187.9,74z"/>
		<path class="st0" d="M228.7,99.5l1.2,1.5l4.2,1.4l-0.1,1.6h-14.6v-1.7l4.2-1.6l0-14.6c0-5.9-1.2-7.9-4.6-7.9v-1.5l9.4-3.4h0.5
			c0,0-0.2,4.4-0.2,9.1L228.7,99.5z"/>
		<path class="st0" d="M40.1,89.8c0,11.1-7.9,14.8-15.5,14.8c-11.4,0-16.1-5.3-16.1-15.2V70.7c0-5.5-1.5-6.7-5.8-6.9v-2.1h17.5v1.9
			l-6,1.9v21.1c0,12.7,5.1,14.6,11,14.6c6.1,0,10.7-2.8,10.7-13.2v-7.8V65.5l-5.8-1.8v-2h15.4V64l-4.4,0.7l-1.2,1.5v8.3L40.1,89.8z"
			/>
		<path class="st0" d="M245.6,74.6V67l-3.7,0.6l-1.6,7.3l-5.3,0.5v2.5c2.9,0,5.3,0.3,5.3,3S240,92.4,240,95.8c0,6.6,2.5,9,6.7,9
			c3.6,0,6.6-1.5,9.2-3.7l-0.7-1.5c0,0-1.8,1.2-4.5,1.2c-2.9,0-5.5-1.6-5.5-5.6l0.3-16.8H260c0.5,0.7,0.9,1.5,1.3,2.4l8.6,23.3
			c-1.5,4.9-5.1,8.7-8.9,8.9c-3.2,0.2-4.9-0.2-4.9-0.2l0.8,6.3c7.7,0.5,12.8-5.3,16.9-16.3l7.5-20.4c2.1-5.5,4.4-6.3,6.1-6.3v-1.8
			h-12V76l4.5,1.5l-6.8,19.3l-7.4-19.5L270,76v-1.4L245.6,74.6z"/>
		<path class="st0" d="M93.3,68.5c-0.7,0-4-3.6-4-4.3c0-0.7,3.2-4.4,4-4.4c0.8,0,4,3.7,4,4.4C97.3,64.8,94,68.5,93.3,68.5z"/>
		<path class="st0" d="M226.1,68.5c-0.7,0-4-3.6-4-4.3c0-0.7,3.2-4.4,4-4.4c0.8,0,4,3.7,4,4.4C230.1,64.8,226.8,68.5,226.1,68.5z"/>
	</g>
	<g>
		<polygon class="st0" points="4.2,5.2 4.2,6.9 8.5,11.7 8.5,44.3 2.8,45.9 2.8,47.8 18.2,47.8 18.2,45.9 13.4,44.6 12.1,43.1 
			12.1,15.9 39.3,48.2 41.6,48.2 41.6,9.3 47.4,7.6 47.4,5.6 31.7,5.6 31.7,7.9 36.7,9.1 37.9,10.6 37.9,36.4 37.9,36.4 37.6,36.4 
			11.2,5.2 		"/>
		<path class="st0" d="M63.2,48.5c-7.7,0-15-4.9-15-15.4c0-10.4,7.8-15.6,15-15.6c7.5,0,15.1,4.7,15.1,15.1
			C78.3,42.7,70.3,48.5,63.2,48.5z M72.4,33.5c0-7.2-3.9-13.2-10-13.2c-5.5,0-8.2,4.8-8.2,11.9c0,7.2,3.4,13.4,9.9,13.4
			C69.5,45.7,72.4,40.7,72.4,33.5z"/>
		<path class="st0" d="M157.9,30.5c0-7.2-4-8.6-8.7-8.6c-4,0-6.5,2.9-6.5,2.9l0,4.7v13.7l1.2,1.5l4.1,1.4l0,1.6h-14.9v-1.7l4.2-1.6
			l0-30.8c0-5.6-1.4-7.1-4.5-7.1V5.3l9.5-3.2h0.6c0,0-0.3,6.6-0.3,11.5v8.9c0,0,6.1-4.9,10.3-4.9c5.2,0,10.1,2.2,10.1,9.9l0,15.8
			l1.2,1.5l4.1,1.4l0,1.6h-14.9v-1.7l4.1-1.6L157.9,30.5z"/>
		<path class="st0" d="M220,31.4c0,8.9,5,12.6,10.8,12.6c3.6,0,7.8-1.5,7.8-1.5l0.6,1.2c-1.5,1.5-5.8,4.8-11.2,4.8
			c-7.3,0-13.8-5.4-13.8-15.4c0-9.1,6.3-15.6,14-15.6c6.1,0,10.8,3.6,10.8,10.5c0,1.8-0.3,3.4-0.3,3.4H220z M229.3,29
			c3.1-0.1,4.1-0.7,4.1-3.8c0-2.7-1.9-4.7-6-4.7c-4.3,0-7.5,3.8-7.5,8.9L229.3,29z"/>
		<path class="st0" d="M247,47.4c-0.4-0.2-1.6-0.8-1.7-2.2l-0.4-6.1h2.8c0.8,4.2,3.6,6.8,7.2,6.8c3.7,0,5.2-1.9,5.2-4.5
			c0-2.4-2-3.7-4.4-5l-3.2-1.7c-4.7-2.4-7-4.3-7-8.9c0-5.7,4.1-8.5,10.6-8.5c4.5,0,8,1.7,8,1.7l-0.8,7.5h-2.6c0-4.7-1.9-6.4-5.8-6.4
			c-2.6,0-5,1-5,3.6c0,2,0.8,2.9,5.9,5.6l2.9,1.5c5.2,2.7,6.7,4.9,6.7,9.3c0,5.2-5.2,8.4-10.3,8.4C251.7,48.5,248.8,48.2,247,47.4z"
			/>
		<path class="st0" d="M298.9,31.4c0,8.9,5,12.6,10.8,12.6c3.6,0,7.9-1.5,7.9-1.5l0.6,1.2c-1.5,1.5-5.8,4.8-11.2,4.8
			c-7.3,0-13.8-5.4-13.8-15.4c0-9.1,6.3-15.6,14-15.6c6.1,0,10.8,3.6,10.8,10.5c0,1.8-0.3,3.4-0.3,3.4H298.9z M308.3,29
			c3.1-0.1,4.1-0.7,4.1-3.8c0-2.7-1.9-4.7-6-4.7c-4.3,0-7.5,3.8-7.5,8.9L308.3,29z"/>
		<path class="st0" d="M379.2,44.8l-1.2-1.5l0.1-16.2c0-7.5-4.9-9.6-9.8-9.6c-4.2,0-10.2,4.9-10.2,4.9c0-2.7,0.1-5.1,0.1-5.1h-0.5
			l-9.3,3.4v1.5c3.6,0,4.5,3.2,4.5,8.9l0,13.4l-4.2,1.6v1.7h14.7l0.1-1.6l-4.1-1.4l-1.2-1.5l0-18.3c0,0,2.2-3,6.3-3
			c4.1,0,8.4,1.5,8.4,8.6l-0.2,14.2l-4.1,1.5v1.7h14.7l0.1-1.6L379.2,44.8z"/>
		<path class="st0" d="M196.9,48.2l-6.8-19l-7.8,19h-2.7l-7.7-23.4c-1.1-2.9-1.7-4.7-3.7-4.7v-1.8h12.6v1.8l-3.8,1.3l5.7,19.4
			l5-12.1l1.2-3.1l-1.7-4.9l-2.2-0.5v-1.8H197v1.9l-3.8,1.2l6.5,19.4l6.7-19.3l-4.3-1.5v-1.7h11.4v1.8c-2.6,0.3-3.9,1-5.9,6.3
			l-7.7,21.8H196.9z"/>
		<path class="st0" d="M128.9,43.4c0,0-1.8,1.1-4.5,1.1c-2.9,0-5.5-1.6-5.4-5.6l0.3-16.7h9.4v0h0.1l0.1-1l0,0l0.6-5.2l-1.2-0.2
			l-0.9,2l-0.5,0.4l-7.5,0.3v0l-0.1,0v-7.6l-3.7,0.6l-1.6,7.2l-5.2,0.5v2.5c2.9,0,5.2,0.3,5.2,3c0,2.7-0.3,11.4-0.3,14.8
			c0,6.5,2.5,8.9,6.6,8.9c3.6,0,6.5-1.5,9.2-3.6L128.9,43.4z"/>
		<path class="st0" d="M289.4,43.4c0,0-1.8,1.1-4.5,1.1c-2.9,0-5.5-1.6-5.4-5.6l0.3-16.7h9.4l0,0h0l0.1-1l0,0L290,16l-1.2-0.2
			l-0.9,2l-0.5,0.4l-7.5,0.3v0h0v-7.6l-3.7,0.6l-1.6,7.2l-5.2,0.5v2.5c2.9,0,5.2,0.3,5.2,3c0,2.7-0.3,11.4-0.3,14.8
			c0,6.5,2.5,8.9,6.6,8.9c3.6,0,6.5-1.5,9.2-3.6L289.4,43.4z"/>
		<path class="st0" d="M104.2,17.9L104.2,17.9L104.2,17.9c0,0-1.1-0.4-3.2-0.4c-4.5,0-9.1,7-9.1,7c0-3.9,0.1-7.2,0.1-7.2h-0.5
			l-9.1,3.4v1.5c3.4,0,4.5,3.1,4.5,8.4v13.9l-4.2,1.6v1.7h14.7l0-1.6l-4.1-1.4L92,43.2V29.6c0-4.2,3.3-6.6,6.9-6.6
			c0.7,0,1.5,0.2,2.1,0.4l1,1.5l1.2,0.1L104.2,17.9L104.2,17.9L104.2,17.9z"/>
		<path class="st0" d="M344.6,17.9L344.6,17.9L344.6,17.9c0,0-1.1-0.4-3.2-0.4c-4.5,0-9.1,7-9.1,7c0-3.9,0.1-7.2,0.1-7.2h-0.5
			l-9.1,3.4v1.5c3.4,0,4.5,3.1,4.5,8.4v13.9l-4.2,1.6v1.7h14.7l0-1.6l-4.1-1.4l-1.2-1.5V29.6c0-4.2,3.3-6.6,6.9-6.6
			c0.7,0,1.5,0.2,2.1,0.4l1,1.5l1.2,0.1L344.6,17.9L344.6,17.9L344.6,17.9z"/>
	</g>
</g>
</svg>
